<?xml version="1.0" encoding="UTF-8" standalone="no"?>
<!DOCTYPE svg PUBLIC "-//W3C//DTD SVG 1.1//EN"
 "http://www.w3.org/Graphics/SVG/1.1/DTD/svg11.dtd">
<!-- Generated by graphviz version 2.40.1 (20161225.0304)
 -->
<!-- Title: G Pages: 1 -->
<svg width="642pt" height="116pt"
 viewBox="0.00 0.00 642.08 116.00" xmlns="http://www.w3.org/2000/svg" xmlns:xlink="http://www.w3.org/1999/xlink">
<g id="graph0" class="graph" transform="scale(1 1) rotate(0) translate(4 112)">
<title>G</title>
<polygon fill="#ffffff" stroke="transparent" points="-4,4 -4,-112 638.0762,-112 638.0762,4 -4,4"/>
<!-- Subject1 -->
<g id="node1" class="node">
<title>Subject1</title>
<ellipse fill="none" stroke="#000000" cx="44.831" cy="-18" rx="44.6626" ry="18"/>
<text text-anchor="start" x="20.3345" y="-14.8" font-family="Times,serif" font-size="14.00" fill="#000000">Subject</text>
<text text-anchor="start" x="62.3275" y="-14.8" font-family="Times,serif" baseline-shift="sub" font-size="14.00" fill="#000000">1</text>
</g>
<!-- Subject2 -->
<g id="node2" class="node">
<title>Subject2</title>
<ellipse fill="none" stroke="#000000" cx="152.831" cy="-18" rx="44.6626" ry="18"/>
<text text-anchor="start" x="128.3345" y="-14.8" font-family="Times,serif" font-size="14.00" fill="#000000">Subject</text>
<text text-anchor="start" x="170.3275" y="-14.8" font-family="Times,serif" baseline-shift="sub" font-size="14.00" fill="#000000">2</text>
</g>
<!-- Subject3 -->
<g id="node3" class="node">
<title>Subject3</title>
<ellipse fill="none" stroke="#000000" cx="260.831" cy="-18" rx="44.6626" ry="18"/>
<text text-anchor="start" x="236.3345" y="-14.8" font-family="Times,serif" font-size="14.00" fill="#000000">Subject</text>
<text text-anchor="start" x="278.3275" y="-14.8" font-family="Times,serif" baseline-shift="sub" font-size="14.00" fill="#000000">3</text>
</g>
<!-- Subject4 -->
<g id="node4" class="node">
<title>Subject4</title>
<ellipse fill="none" stroke="#000000" cx="368.831" cy="-18" rx="44.6626" ry="18"/>
<text text-anchor="start" x="344.3345" y="-14.8" font-family="Times,serif" font-size="14.00" fill="#000000">Subject</text>
<text text-anchor="start" x="386.3275" y="-14.8" font-family="Times,serif" baseline-shift="sub" font-size="14.00" fill="#000000">4</text>
</g>
<!-- Subject5 -->
<g id="node5" class="node">
<title>Subject5</title>
<ellipse fill="none" stroke="#000000" cx="476.831" cy="-18" rx="44.6626" ry="18"/>
<text text-anchor="start" x="452.3345" y="-14.8" font-family="Times,serif" font-size="14.00" fill="#000000">Subject</text>
<text text-anchor="start" x="494.3275" y="-14.8" font-family="Times,serif" baseline-shift="sub" font-size="14.00" fill="#000000">5</text>
</g>
<!-- Subject6 -->
<g id="node6" class="node">
<title>Subject6</title>
<ellipse fill="none" stroke="#000000" cx="586.831" cy="-18" rx="47.4917" ry="18"/>
<text text-anchor="start" x="560.5845" y="-14.8" font-family="Times,serif" font-size="14.00" fill="#000000">Subject</text>
<text text-anchor="start" x="602.5775" y="-14.8" font-family="Times,serif" baseline-shift="sub" font-size="14.00" fill="#000000">...</text>
</g>
<!-- Secure -->
<g id="node7" class="node">
<title>Secure</title>
<ellipse fill="none" stroke="#000000" cx="314.831" cy="-90" rx="37.1174" ry="18"/>
<text text-anchor="middle" x="314.831" y="-85.8" font-family="Times,serif" font-size="14.00" fill="#000000">Secure</text>
</g>
<!-- Secure&#45;&gt;Subject1 -->
<g id="edge1" class="edge">
<title>Secure&#45;&gt;Subject1</title>
<path fill="none" stroke="#000000" d="M280.9432,-82.3775C238.2277,-72.5751 162.6647,-54.5884 98.831,-36 95.5042,-35.0313 92.0758,-33.9902 88.6359,-32.9148"/>
<polygon fill="#000000" stroke="#000000" points="89.5774,-29.5413 78.9863,-29.8249 87.4426,-36.2079 89.5774,-29.5413"/>
</g>
<!-- Secure&#45;&gt;Subject2 -->
<g id="edge2" class="edge">
<title>Secure&#45;&gt;Subject2</title>
<path fill="none" stroke="#000000" d="M287.3499,-77.7862C261.2024,-66.1651 221.5872,-48.5583 192.1108,-35.4577"/>
<polygon fill="#000000" stroke="#000000" points="193.4864,-32.239 182.9267,-31.3759 190.6433,-38.6357 193.4864,-32.239"/>
</g>
<!-- Secure&#45;&gt;Subject3 -->
<g id="edge3" class="edge">
<title>Secure&#45;&gt;Subject3</title>
<path fill="none" stroke="#000000" d="M302.0337,-72.937C295.4725,-64.1886 287.3468,-53.3545 280.0502,-43.6256"/>
<polygon fill="#000000" stroke="#000000" points="282.7115,-41.3407 273.9115,-35.4407 277.1115,-45.5407 282.7115,-41.3407"/>
</g>
<!-- Secure&#45;&gt;Subject4 -->
<g id="edge4" class="edge">
<title>Secure&#45;&gt;Subject4</title>
<path fill="none" stroke="#000000" d="M327.6282,-72.937C334.1895,-64.1886 342.3151,-53.3545 349.6118,-43.6256"/>
<polygon fill="#000000" stroke="#000000" points="352.5504,-45.5407 355.7505,-35.4407 346.9504,-41.3407 352.5504,-45.5407"/>
</g>
<!-- Secure&#45;&gt;Subject5 -->
<g id="edge5" class="edge">
<title>Secure&#45;&gt;Subject5</title>
<path fill="none" stroke="#000000" d="M342.3121,-77.7862C368.4596,-66.1651 408.0748,-48.5583 437.5512,-35.4577"/>
<polygon fill="#000000" stroke="#000000" points="439.0186,-38.6357 446.7353,-31.3759 436.1756,-32.239 439.0186,-38.6357"/>
</g>
<!-- Secure&#45;&gt;Subject6 -->
<g id="edge6" class="edge">
<title>Secure&#45;&gt;Subject6</title>
<path fill="none" stroke="#000000" d="M348.6868,-82.2666C391.3693,-72.3497 466.8983,-54.245 530.831,-36 534.2235,-35.0318 537.7202,-33.9972 541.2312,-32.9316"/>
<polygon fill="#000000" stroke="#000000" points="542.5736,-36.1799 551.0892,-29.8763 540.5013,-29.4937 542.5736,-36.1799"/>
</g>
</g>
</svg>
