<?xml version="1.0" encoding="UTF-8" standalone="no"?>
<!DOCTYPE svg PUBLIC "-//W3C//DTD SVG 1.1//EN"
 "http://www.w3.org/Graphics/SVG/1.1/DTD/svg11.dtd">
<!-- Generated by graphviz version 2.40.1 (20161225.0304)
 -->
<!-- Title: G Pages: 1 -->
<svg width="642pt" height="116pt"
 viewBox="0.00 0.00 642.08 116.00" xmlns="http://www.w3.org/2000/svg" xmlns:xlink="http://www.w3.org/1999/xlink">
<g id="graph0" class="graph" transform="scale(1 1) rotate(0) translate(4 112)">
<title>G</title>
<polygon fill="#ffffff" stroke="transparent" points="-4,4 -4,-112 638.0762,-112 638.0762,4 -4,4"/>
<!-- Secure1 -->
<g id="node1" class="node">
<title>Secure1</title>
<ellipse fill="none" stroke="#000000" cx="44.831" cy="-90" rx="37.1174" ry="18"/>
<text text-anchor="middle" x="44.831" y="-85.8" font-family="Times,serif" font-size="14.00" fill="#000000">Secure</text>
</g>
<!-- Subject1 -->
<g id="node7" class="node">
<title>Subject1</title>
<ellipse fill="none" stroke="#000000" cx="44.831" cy="-18" rx="44.6626" ry="18"/>
<text text-anchor="start" x="20.3345" y="-14.8" font-family="Times,serif" font-size="14.00" fill="#000000">Subject</text>
<text text-anchor="start" x="62.3275" y="-14.8" font-family="Times,serif" baseline-shift="sub" font-size="14.00" fill="#000000">1</text>
</g>
<!-- Secure1&#45;&gt;Subject1 -->
<g id="edge1" class="edge">
<title>Secure1&#45;&gt;Subject1</title>
<path fill="none" stroke="#000000" d="M44.831,-71.8314C44.831,-64.131 44.831,-54.9743 44.831,-46.4166"/>
<polygon fill="#000000" stroke="#000000" points="48.3311,-46.4132 44.831,-36.4133 41.3311,-46.4133 48.3311,-46.4132"/>
</g>
<!-- Secure2 -->
<g id="node2" class="node">
<title>Secure2</title>
<ellipse fill="none" stroke="#000000" cx="152.831" cy="-90" rx="37.1174" ry="18"/>
<text text-anchor="middle" x="152.831" y="-85.8" font-family="Times,serif" font-size="14.00" fill="#000000">Secure</text>
</g>
<!-- Subject2 -->
<g id="node8" class="node">
<title>Subject2</title>
<ellipse fill="none" stroke="#000000" cx="152.831" cy="-18" rx="44.6626" ry="18"/>
<text text-anchor="start" x="128.3345" y="-14.8" font-family="Times,serif" font-size="14.00" fill="#000000">Subject</text>
<text text-anchor="start" x="170.3275" y="-14.8" font-family="Times,serif" baseline-shift="sub" font-size="14.00" fill="#000000">2</text>
</g>
<!-- Secure2&#45;&gt;Subject2 -->
<g id="edge2" class="edge">
<title>Secure2&#45;&gt;Subject2</title>
<path fill="none" stroke="#000000" d="M152.831,-71.8314C152.831,-64.131 152.831,-54.9743 152.831,-46.4166"/>
<polygon fill="#000000" stroke="#000000" points="156.3311,-46.4132 152.831,-36.4133 149.3311,-46.4133 156.3311,-46.4132"/>
</g>
<!-- Secure3 -->
<g id="node3" class="node">
<title>Secure3</title>
<ellipse fill="none" stroke="#000000" cx="260.831" cy="-90" rx="37.1174" ry="18"/>
<text text-anchor="middle" x="260.831" y="-85.8" font-family="Times,serif" font-size="14.00" fill="#000000">Secure</text>
</g>
<!-- Subject3 -->
<g id="node9" class="node">
<title>Subject3</title>
<ellipse fill="none" stroke="#000000" cx="260.831" cy="-18" rx="44.6626" ry="18"/>
<text text-anchor="start" x="236.3345" y="-14.8" font-family="Times,serif" font-size="14.00" fill="#000000">Subject</text>
<text text-anchor="start" x="278.3275" y="-14.8" font-family="Times,serif" baseline-shift="sub" font-size="14.00" fill="#000000">3</text>
</g>
<!-- Secure3&#45;&gt;Subject3 -->
<g id="edge3" class="edge">
<title>Secure3&#45;&gt;Subject3</title>
<path fill="none" stroke="#000000" d="M260.831,-71.8314C260.831,-64.131 260.831,-54.9743 260.831,-46.4166"/>
<polygon fill="#000000" stroke="#000000" points="264.3311,-46.4132 260.831,-36.4133 257.3311,-46.4133 264.3311,-46.4132"/>
</g>
<!-- Secure4 -->
<g id="node4" class="node">
<title>Secure4</title>
<ellipse fill="none" stroke="#000000" cx="368.831" cy="-90" rx="37.1174" ry="18"/>
<text text-anchor="middle" x="368.831" y="-85.8" font-family="Times,serif" font-size="14.00" fill="#000000">Secure</text>
</g>
<!-- Subject4 -->
<g id="node10" class="node">
<title>Subject4</title>
<ellipse fill="none" stroke="#000000" cx="368.831" cy="-18" rx="44.6626" ry="18"/>
<text text-anchor="start" x="344.3345" y="-14.8" font-family="Times,serif" font-size="14.00" fill="#000000">Subject</text>
<text text-anchor="start" x="386.3275" y="-14.8" font-family="Times,serif" baseline-shift="sub" font-size="14.00" fill="#000000">4</text>
</g>
<!-- Secure4&#45;&gt;Subject4 -->
<g id="edge4" class="edge">
<title>Secure4&#45;&gt;Subject4</title>
<path fill="none" stroke="#000000" d="M368.831,-71.8314C368.831,-64.131 368.831,-54.9743 368.831,-46.4166"/>
<polygon fill="#000000" stroke="#000000" points="372.3311,-46.4132 368.831,-36.4133 365.3311,-46.4133 372.3311,-46.4132"/>
</g>
<!-- Secure5 -->
<g id="node5" class="node">
<title>Secure5</title>
<ellipse fill="none" stroke="#000000" cx="476.831" cy="-90" rx="37.1174" ry="18"/>
<text text-anchor="middle" x="476.831" y="-85.8" font-family="Times,serif" font-size="14.00" fill="#000000">Secure</text>
</g>
<!-- Subject5 -->
<g id="node11" class="node">
<title>Subject5</title>
<ellipse fill="none" stroke="#000000" cx="476.831" cy="-18" rx="44.6626" ry="18"/>
<text text-anchor="start" x="452.3345" y="-14.8" font-family="Times,serif" font-size="14.00" fill="#000000">Subject</text>
<text text-anchor="start" x="494.3275" y="-14.8" font-family="Times,serif" baseline-shift="sub" font-size="14.00" fill="#000000">5</text>
</g>
<!-- Secure5&#45;&gt;Subject5 -->
<g id="edge5" class="edge">
<title>Secure5&#45;&gt;Subject5</title>
<path fill="none" stroke="#000000" d="M476.831,-71.8314C476.831,-64.131 476.831,-54.9743 476.831,-46.4166"/>
<polygon fill="#000000" stroke="#000000" points="480.3311,-46.4132 476.831,-36.4133 473.3311,-46.4133 480.3311,-46.4132"/>
</g>
<!-- Secure6 -->
<g id="node6" class="node">
<title>Secure6</title>
<ellipse fill="none" stroke="#000000" cx="586.831" cy="-90" rx="37.1174" ry="18"/>
<text text-anchor="middle" x="586.831" y="-85.8" font-family="Times,serif" font-size="14.00" fill="#000000">Secure</text>
</g>
<!-- Subject6 -->
<g id="node12" class="node">
<title>Subject6</title>
<ellipse fill="none" stroke="#000000" cx="586.831" cy="-18" rx="47.4917" ry="18"/>
<text text-anchor="start" x="560.5845" y="-14.8" font-family="Times,serif" font-size="14.00" fill="#000000">Subject</text>
<text text-anchor="start" x="602.5775" y="-14.8" font-family="Times,serif" baseline-shift="sub" font-size="14.00" fill="#000000">...</text>
</g>
<!-- Secure6&#45;&gt;Subject6 -->
<g id="edge6" class="edge">
<title>Secure6&#45;&gt;Subject6</title>
<path fill="none" stroke="#000000" d="M586.831,-71.8314C586.831,-64.131 586.831,-54.9743 586.831,-46.4166"/>
<polygon fill="#000000" stroke="#000000" points="590.3311,-46.4132 586.831,-36.4133 583.3311,-46.4133 590.3311,-46.4132"/>
</g>
</g>
</svg>
